<svg xmlns="http://www.w3.org/2000/svg" viewBox="0 0 64 64">
  <defs>
    <linearGradient id="bg" x1="0%" y1="0%" x2="100%" y2="100%">
      <stop offset="0%" stop-color="#14b8a6" />
      <stop offset="100%" stop-color="#0891b2" />
    </linearGradient>
  </defs>
  <rect x="3" y="3" width="58" height="58" rx="14" fill="url(#bg)" />
  <path
    d="M32 19c1.7 0 3 1.3 3 3v7h7c1.7 0 3 1.3 3 3s-1.3 3-3 3h-7v7c0 1.7-1.3 3-3 3s-3-1.3-3-3v-7h-7c-1.7 0-3-1.3-3-3s1.3-3 3-3h7v-7c0-1.7 1.3-3 3-3z"
    fill="#ffffff"
  />
</svg>
